<svg xmlns="http://www.w3.org/2000/svg" width="24" height="22" viewBox="0 0 24 22" fill="none">
  <path d="M23 8.49939C22.9981 9.27331 22.762 10.0277 22.3243 10.6589C21.8865 11.2902 21.2685 11.7675 20.555 12.0253C20.165 12.1766 19.7509 12.2529 19.3337 12.2503C18.5771 12.2481 17.8396 12.0067 17.2224 11.559C16.6052 11.1113 16.1385 10.4793 15.8863 9.7497C15.7382 9.35036 15.6636 8.92647 15.6663 8.49939C15.6698 8.9263 15.5949 9.35077 15.4463 9.7497C15.1943 10.4792 14.7278 11.1112 14.1108 11.5588C13.4938 12.0065 12.7565 12.2481 12 12.2503C11.2435 12.2481 10.5062 12.0065 9.88921 11.5588C9.27221 11.1112 8.80573 10.4792 8.55373 9.7497C8.40561 9.35038 8.33102 8.92647 8.33373 8.49939C8.33611 8.9263 8.26238 9.35077 8.11373 9.7497C7.86166 10.4794 7.395 11.1115 6.77777 11.5592C6.16053 12.0069 5.42297 12.2483 4.66627 12.2503C4.25005 12.2527 3.83384 12.1773 3.44497 12.0253C2.73158 11.7673 2.11367 11.29 1.67595 10.6588C1.23822 10.0275 1.00212 9.27327 1 8.49939L1.54941 6.52542L2.86941 2.67478C3.03699 2.1849 3.34946 1.76049 3.76348 1.4604C4.1775 1.16031 4.67255 0.999407 5.18 1H18.82C19.3272 0.999659 19.822 1.16068 20.2358 1.46075C20.6496 1.76083 20.9619 2.1851 21.1294 2.67478L22.4494 6.52542L23 8.49939Z" stroke="white" stroke-width="2" stroke-linecap="round" stroke-linejoin="round"/>
  <path d="M20.5549 12.0254V18.5007C20.5546 19.1635 20.2971 19.799 19.8388 20.2677C19.3806 20.7363 18.7592 20.9998 18.1112 21.0001H5.88748C5.56646 21.0003 5.24855 20.9357 4.95192 20.8102C4.65529 20.6846 4.38575 20.5006 4.15869 20.2685C3.93164 20.0364 3.75153 19.7608 3.62864 19.4575C3.50575 19.1541 3.4425 18.829 3.4425 18.5007V12.0254M8.33364 17.2504H15.6662" stroke="white" stroke-width="2" stroke-linecap="round" stroke-linejoin="round"/>
</svg>