<svg xmlns="http://www.w3.org/2000/svg" width="22" height="24" viewBox="0 0 22 24" fill="none">
  <path d="M15.6519 2.52923L16.3009 1.84718C16.8173 1.30464 17.5176 0.999901 18.2478 1C18.978 1.0001 19.6782 1.30503 20.1944 1.8477C20.7107 2.39038 21.0007 3.12636 21.0006 3.89372C21.0005 4.66108 20.7103 5.39698 20.1939 5.93951L19.5439 6.62157C19.5439 6.62157 18.1659 6.53645 16.9499 5.25746C15.7329 3.97952 15.6519 2.53029 15.6519 2.53029L9.68694 8.79805C9.28294 9.22263 9.08094 9.43492 8.90694 9.66928C8.70194 9.94462 8.52694 10.2441 8.38294 10.5605C8.26194 10.8285 8.17194 11.1133 7.99094 11.6829L7.41194 13.5062M7.41194 13.5062L7.03794 14.6854C6.99395 14.8229 6.98735 14.9706 7.01886 15.1118C7.05037 15.2531 7.11875 15.3823 7.21631 15.485C7.31388 15.5876 7.43676 15.6596 7.57113 15.6929C7.7055 15.7261 7.84604 15.7193 7.97694 15.6733L9.09994 15.2802M7.41194 13.5062L9.09994 15.2802M19.5449 6.62052L13.5799 12.8893C13.1759 13.3139 12.9739 13.5262 12.7509 13.7091C12.4881 13.9244 12.2038 14.1091 11.9029 14.2598C11.6479 14.3869 11.3769 14.4815 10.8349 14.6717L9.09994 15.2802" stroke="white" stroke-width="2"/>
  <path d="M21 11.5093C21 17.3136 16.523 22.0187 11 22.0187C5.477 22.0187 1 17.3136 1 11.5093C1 5.70503 5.477 1 11 1" stroke="white" stroke-width="2" stroke-linecap="round"/>
</svg>