<svg xmlns="http://www.w3.org/2000/svg" width="23" height="22" viewBox="0 0 23 22" fill="none">
  <path d="M7.35522 15.4675C7.35522 15.4675 10.0106 15.238 11.849 13.1749C13.6874 11.1117 13.8919 8.13184 13.8919 8.13184L18.3706 16.0303C18.7229 16.6509 18.8759 17.3877 18.8045 18.1191C18.7331 18.8505 18.4415 19.5327 17.9779 20.053C17.5143 20.5732 16.9064 20.9005 16.2547 20.9806C15.603 21.0607 14.9464 20.889 14.3934 20.4937L7.35522 15.4675Z" stroke="white" stroke-width="2"/>
  <path d="M7.35526 15.2642C10.8652 15.2642 13.7105 12.071 13.7105 8.13208C13.7105 4.19314 10.8652 1 7.35526 1C3.84535 1 1 4.19314 1 8.13208C1 12.071 3.84535 15.2642 7.35526 15.2642Z" stroke="white" stroke-width="2"/>
  <path d="M1.95728 14.9118L13.3962 2.07471M18.3325 19.8031H21.9999" stroke="white" stroke-width="2" stroke-linecap="round" stroke-linejoin="round"/>
</svg>