<svg xmlns="http://www.w3.org/2000/svg" width="26" height="23" viewBox="0 0 26 23" fill="none">
  <path d="M8.26318 15.9936C8.26318 15.9936 11.2979 15.7526 13.3989 13.5863C15.4999 11.42 15.7337 8.29102 15.7337 8.29102L20.8522 16.5845C21.2548 17.2362 21.4297 18.0099 21.3481 18.7779C21.2665 19.5458 20.9332 20.2621 20.4034 20.8084C19.8736 21.3547 19.1788 21.6983 18.434 21.7825C17.6892 21.8666 16.9388 21.6862 16.3068 21.2712L8.26318 15.9936Z" stroke="white"/>
  <path d="M8.26316 15.7804C12.2745 15.7804 15.5263 12.4275 15.5263 8.29156C15.5263 4.1556 12.2745 0.802734 8.26316 0.802734C4.25183 0.802734 1 4.1556 1 8.29156C1 12.4275 4.25183 15.7804 8.26316 15.7804Z" stroke="white"/>
  <path d="M2.09399 15.4104L15.167 1.93115M20.8085 20.5463H24.9999" stroke="white" stroke-linecap="round" stroke-linejoin="round"/>
</svg>