<svg xmlns="http://www.w3.org/2000/svg" width="14" height="17" viewBox="0 0 17 20" fill="none">
  <path d="M8.41309 0.846191C10.4714 0.846191 12.4454 1.64669 13.9009 3.07158C15.3563 4.49648 16.174 6.42905 16.174 8.44416C16.174 11.6548 13.8696 15.1537 9.32052 18.9784C9.06757 19.1912 8.74506 19.308 8.4116 19.3077C8.07814 19.3074 7.75584 19.1901 7.50328 18.9769L7.2024 18.7213C2.85472 14.9963 0.652222 11.5831 0.652222 8.44416C0.652222 6.42905 1.46988 4.49648 2.92533 3.07158C4.38077 1.64669 6.35478 0.846191 8.41309 0.846191ZM8.41309 5.52186C7.62143 5.52186 6.8622 5.82975 6.30241 6.37778C5.74263 6.92582 5.42814 7.66912 5.42814 8.44416C5.42814 9.2192 5.74263 9.9625 6.30241 10.5105C6.8622 11.0586 7.62143 11.3665 8.41309 11.3665C9.20475 11.3665 9.96398 11.0586 10.5238 10.5105C11.0836 9.9625 11.398 9.2192 11.398 8.44416C11.398 7.66912 11.0836 6.92582 10.5238 6.37778C9.96398 5.82975 9.20475 5.52186 8.41309 5.52186Z" fill="#DAF1E9"/>
</svg>