<svg xmlns="http://www.w3.org/2000/svg" width="20" height="24" viewBox="0 0 20 24" fill="none">
  <path d="M14 3.104C16.175 3.11662 17.353 3.21856 18.121 4.02567C19 4.94944 19 6.43546 19 9.4075V15.7131C19 18.6862 19 20.1722 18.121 21.096C17.243 22.0187 15.828 22.0187 13 22.0187H7C4.172 22.0187 2.757 22.0187 1.879 21.096C1 20.1712 1 18.6862 1 15.7131V9.4075C1 6.43546 1 4.94944 1.879 4.02567C2.647 3.21856 3.825 3.11662 6 3.104" stroke="white" stroke-width="2"/>
  <path d="M6 13.6114H14M5 9.93311H15M7 17.2896H13" stroke="white" stroke-width="2" stroke-linecap="round"/>
  <path d="M6 2.5764C6 2.15831 6.15804 1.75735 6.43934 1.46172C6.72064 1.16608 7.10218 1 7.5 1H12.5C12.8978 1 13.2794 1.16608 13.5607 1.46172C13.842 1.75735 14 2.15831 14 2.5764V3.62733C14 4.04542 13.842 4.44639 13.5607 4.74202C13.2794 5.03765 12.8978 5.20374 12.5 5.20374H7.5C7.10218 5.20374 6.72064 5.03765 6.43934 4.74202C6.15804 4.44639 6 4.04542 6 3.62733V2.5764Z" stroke="white" stroke-width="2"/>
</svg>