<svg xmlns="http://www.w3.org/2000/svg" width="24" height="24" viewBox="0 0 24 24" fill="none">
  <path d="M8.07143 16.8889C8.88071 13.7747 8.99071 11.9584 8.47371 10.8389C8.34851 10.5993 8.18141 10.3744 7.97714 10.1703C6.69957 8.788 6.11971 7.70756 5.89814 7.039C5.77422 6.64539 5.72498 6.2398 5.752 5.83511C5.83248 4.78017 6.29861 3.76503 7.09557 2.90911C8.43129 1.45467 10.9204 1.00856 12 1C13.0811 1.00856 15.6347 1.45589 16.9704 2.90911C17.7674 3.76503 18.2335 4.78017 18.314 5.83511C18.336 6.23844 18.2967 6.64789 18.1679 7.039C17.9479 7.70756 17.3664 8.78678 16.0889 10.1703C15.8846 10.3744 15.7175 10.5993 15.5923 10.8389C15.0769 11.9584 15.1209 13.7747 15.9286 16.8889M15.1429 13.2222H8.85714M20.9053 23H3.09471C2.60757 23 2.364 23 2.16443 22.9474C1.62229 22.8069 1.19957 22.395 1.05343 21.867C1 21.6739 1 21.438 1 20.9638C1 20.0166 1 19.5436 1.10686 19.1549C1.39757 18.1001 2.24457 17.2763 3.32886 16.994C3.72957 16.8889 4.21671 16.8889 5.191 16.8889H18.809C19.7833 16.8889 20.2704 16.8889 20.6711 16.9928C21.7554 17.2751 22.6024 18.0989 22.8931 19.1537C23 19.5423 23 20.0153 23 20.9626C23 21.4368 23 21.6739 22.9466 21.867C22.8004 22.395 22.3777 22.8069 21.8356 22.9474C21.636 23 21.3924 23 20.9053 23Z" stroke="white" stroke-linecap="round" stroke-linejoin="round"/>
</svg>